<svg xmlns="http://www.w3.org/2000/svg"  viewBox="0 0 64 64" width="256px" height="256px"><linearGradient id="liKnT_c0mI1rQPpmH8vzxa" x1="25" x2="25" y1="36" y2="46.672" gradientUnits="userSpaceOnUse" spreadMethod="reflect"><stop offset="0" stop-color="#6dc7ff"/><stop offset="1" stop-color="#e6abff"/></linearGradient><path fill="url(#liKnT_c0mI1rQPpmH8vzxa)" d="M25 36.999A4 4 0 1 0 25 44.999A4 4 0 1 0 25 36.999Z"/><linearGradient id="liKnT_c0mI1rQPpmH8vzxb" x1="32" x2="32" y1="7" y2="58.088" gradientUnits="userSpaceOnUse" spreadMethod="reflect"><stop offset="0" stop-color="#1a6dff"/><stop offset="1" stop-color="#c822ff"/></linearGradient><path fill="url(#liKnT_c0mI1rQPpmH8vzxb)" d="M56,15c0-3.866-3.134-7-7-7H15c-3.866,0-7,3.134-7,7v34c0,3.866,3.134,7,7,7h34 c3.866,0,7-3.134,7-7V15z M30.387,27.722c0.96,3.385,3.658,6.036,7.068,6.936l-4.917,3.688c-0.91-2.575-3.096-4.549-5.8-5.151 L30.387,27.722z M40,32.999c-4.411,0-8-3.589-8-8c0-4.411,3.589-8,8-8c4.411,0,8,3.589,8,8S44.411,32.999,40,32.999z M25,34.999 c3.309,0,6,2.691,6,6s-2.691,6-6,6c-3.309,0-6-2.691-6-6S21.691,34.999,25,34.999z M17.008,40.836L10,38.285V31.9l9.38,3.414 C17.949,36.729,17.052,38.679,17.008,40.836z M54,49c0,2.757-2.243,5-5,5H15c-2.757,0-5-2.243-5-5v-8.587l7.28,2.649 c0.914,3.413,4.024,5.937,7.72,5.937c4.411,0,8-3.589,8-8c0-0.163-0.015-0.322-0.024-0.482l7.382-5.536 C45.705,34.791,50,30.392,50,24.999c0-5.514-4.486-10-10-10c-5.404,0-9.808,4.311-9.983,9.672l-5.57,8.356 c-1.116,0.077-2.169,0.38-3.113,0.87L10,29.772L10,15c0-2.757,2.243-5,5-5l34,0c2.757,0,5,2.243,5,5L54,49z"/><linearGradient id="liKnT_c0mI1rQPpmH8vzxc" x1="40" x2="40" y1="6.999" y2="58.087" gradientUnits="userSpaceOnUse" spreadMethod="reflect"><stop offset="0" stop-color="#1a6dff"/><stop offset="1" stop-color="#c822ff"/></linearGradient><path fill="url(#liKnT_c0mI1rQPpmH8vzxc)" d="M40,18.999c-3.309,0-6,2.691-6,6c0,3.309,2.691,6,6,6s6-2.691,6-6 C46,21.69,43.309,18.999,40,18.999z M40,28.999c-2.206,0-4-1.794-4-4s1.794-4,4-4c2.206,0,4,1.794,4,4S42.206,28.999,40,28.999z"/></svg>